<svg width="81" height="81" viewBox="0 0 81 81" fill="none" xmlns="http://www.w3.org/2000/svg">
<g filter="url(#filter0_d_7_3)">
<path d="M58.6319 17.1932C62.3406 16.8128 65.3048 18.5936 67.5246 22.5358C69.7905 26.3574 71.1998 30.9619 71.7525 36.3493C72.3993 42.6536 71.7288 47.819 69.741 51.8454C67.7531 55.8717 64.9628 58.0692 61.3701 58.4378C58.6465 58.7172 55.4627 57.3643 51.8186 54.379C48.2324 51.3879 51.6032 53.3235 47.5283 48.9925L47.9172 48.1769C51.4001 51.8737 48.9526 48.4182 52.2834 51.2039C55.6142 53.9896 58.5255 55.2547 61.0173 54.9991C64.0885 54.684 66.4564 52.9352 68.1209 49.7529C69.7854 46.5705 70.4177 43.0307 70.0179 39.1334C69.6886 35.9239 68.7576 33.4133 67.2249 31.6014C65.7501 29.7835 63.7668 29.0024 61.2751 29.2581C58.6674 29.5256 57.0067 31.5274 54.3789 33.8819C51.7394 36.1219 49.0948 38.8835 46.4452 42.167C43.7838 45.3358 41.1283 48.5619 38.4787 51.8454C35.8753 55.0082 33.2887 57.764 30.7188 60.1126C28.1952 62.3406 24.7594 62.8888 22.3255 63.1385C18.6168 63.5189 15.6237 61.7411 13.346 57.8048C11.1262 53.8626 9.74587 49.2552 9.20493 43.9824C8.55815 37.6781 9.22867 32.5127 11.2165 28.4863C13.2622 24.454 16.0525 22.2566 19.5874 21.8939C22.311 21.6145 25.4658 22.9704 29.0519 25.9616C32.696 28.9468 30.8142 28.8689 34.8891 33.1999L34.101 33.2808C30.6761 29.5781 32.0628 31.9076 28.6741 29.1278C25.3432 26.342 22.4319 25.077 19.9402 25.3326C16.8689 25.6477 14.501 27.3965 12.8365 30.5788C11.1721 33.7612 10.5397 37.301 10.9396 41.1983C11.2688 44.4077 12.1708 46.9214 13.6456 48.7392C15.1783 50.5511 17.1906 51.3292 19.6824 51.0736C22.29 50.8061 24.9137 49.5524 27.5532 47.3124C30.181 44.9579 32.8256 42.1962 35.4869 39.0274C38.1366 35.7439 40.7631 32.5208 43.3665 29.3579C46.0161 26.0745 48.6027 23.3187 51.1264 21.0907C53.6962 18.7421 56.1981 17.4429 58.6319 17.1932Z" fill="white"/>
<path d="M46.3825 45.6448L47.0102 51.4758L51.602 48.1875L46.3825 45.6448ZM48.6161 49.6977L51.1899 53.3836L51.9852 52.8141L49.4114 49.1282L48.6161 49.6977Z" fill="white"/>
<path d="M36.803 36.0827L35.7638 30.3257L31.4074 33.9508L36.803 36.0827ZM34.2846 32.2188L31.4578 28.7531L30.7032 29.381L33.5301 32.8467L34.2846 32.2188Z" fill="white"/>
</g>
<g filter="url(#filter1_d_7_3)">
<path d="M58.7457 20.1498C59.1847 19.8219 59.6918 19.7851 60.2669 20.0394C60.84 20.291 61.4118 20.7988 61.9825 21.5629C62.3581 22.0658 62.6262 22.5407 62.7869 22.9877C62.9455 23.4319 62.9957 23.8294 62.9374 24.1802C62.8798 24.5262 62.7107 24.804 62.4301 25.0136C62.2884 25.1194 62.1374 25.1954 61.9771 25.2415C61.8196 25.2856 61.6507 25.297 61.4704 25.2759C61.2908 25.2498 61.0978 25.1884 60.8913 25.0916L60.8496 25.1227C61.0212 25.3235 61.1668 25.4982 61.2865 25.6469C61.4069 25.7907 61.5003 25.9071 61.5667 25.996L62.874 27.7464L61.4903 28.7798L56.4323 22.0073L57.5451 21.1762L58.2038 21.6322L58.2705 21.5824C58.2308 21.309 58.2233 21.0874 58.2479 20.9176C58.2732 20.7428 58.3276 20.5983 58.4111 20.4841C58.4952 20.3649 58.6068 20.2535 58.7457 20.1498ZM59.1422 21.6455C59.0171 21.7389 58.9458 21.8549 58.9282 21.9936C58.9106 22.1323 58.949 22.3026 59.0437 22.5047C59.1383 22.7067 59.2924 22.9508 59.5062 23.237L59.7116 23.512C59.8984 23.7621 60.07 23.9542 60.2265 24.0884C60.3809 24.2198 60.5246 24.2964 60.6577 24.3181C60.7916 24.3351 60.9196 24.2979 61.0418 24.2066C61.1474 24.1277 61.2017 24.0179 61.2048 23.8771C61.2058 23.7335 61.1545 23.5576 61.0509 23.3493C60.95 23.139 60.7979 22.8977 60.5946 22.6254C60.2605 22.178 59.9722 21.8761 59.7298 21.7196C59.4881 21.5582 59.2922 21.5335 59.1422 21.6455Z" fill="black"/>
<path d="M63.0223 22.9036L63.0222 22.9031C62.8509 22.4267 62.5687 21.93 62.1828 21.4133C61.5988 20.6313 60.9957 20.0864 60.3676 19.8106C59.7248 19.5265 59.1193 19.5587 58.5961 19.9494C58.4406 20.0656 58.3097 20.1947 58.208 20.3382C58.096 20.4923 58.0301 20.6771 58.0005 20.8817C57.9875 20.9714 57.9823 21.0697 57.9841 21.1761L57.6874 20.9707L57.5396 20.8683L57.3955 20.9759L56.2828 21.807L56.0824 21.9566L56.232 22.1569L61.29 28.9294L61.4396 29.1297L61.6399 28.9801L63.0236 27.9467L63.2239 27.7971L63.0743 27.5968L61.767 25.8464C61.704 25.762 61.6199 25.6567 61.5157 25.5314C61.6983 25.5451 61.8752 25.5296 62.0445 25.4823L62.0463 25.4818C62.2373 25.4268 62.4153 25.3367 62.5797 25.2139C62.9121 24.9656 63.1159 24.6308 63.184 24.2213L63.184 24.2212C63.2512 23.8169 63.1908 23.3752 63.0223 22.9036ZM60.8254 23.4574L60.8254 23.4574L60.827 23.4607C60.9221 23.6518 60.9549 23.7862 60.9548 23.8735C60.953 23.9422 60.9311 23.9772 60.8923 24.0063C60.8164 24.0629 60.7533 24.0771 60.6936 24.0706C60.6228 24.0579 60.5218 24.0113 60.3889 23.8983C60.2516 23.7806 60.0925 23.6043 59.9119 23.3624L59.7065 23.0874C59.4976 22.8077 59.3545 22.579 59.2701 22.3986C59.1846 22.2162 59.1671 22.0966 59.1762 22.0251C59.1842 21.9619 59.2141 21.9038 59.2917 21.8458C59.3129 21.8301 59.3805 21.7869 59.591 21.9275L59.591 21.9275L59.5942 21.9296C59.7979 22.0611 60.0645 22.3335 60.3943 22.775C60.5919 23.0396 60.734 23.2666 60.8254 23.4574Z" stroke="#696969" stroke-opacity="0.2" stroke-width="0.5"/>
<path d="M53.9806 23.6774C54.3844 23.3386 54.8021 23.2213 55.2336 23.3255C55.6628 23.4271 56.1126 23.7581 56.5829 24.3187L59.047 27.2555L57.7241 28.3656L55.621 25.8591C55.3691 25.5589 55.1494 25.3562 54.9616 25.2512C54.7739 25.1461 54.6189 25.1449 54.4967 25.2474C54.3108 25.4035 54.2704 25.6116 54.3756 25.8719C54.4813 26.1273 54.7169 26.4728 55.0824 26.9085L56.8912 29.0643L55.5682 30.1744L53.4652 27.6679C53.2958 27.466 53.1421 27.3097 53.0041 27.1992C52.8665 27.0838 52.7435 27.0127 52.635 26.986C52.5266 26.9593 52.4312 26.9804 52.3489 27.0495C52.2267 27.1521 52.1698 27.2813 52.1783 27.4371C52.1895 27.5907 52.2663 27.782 52.4087 28.0111C52.5511 28.2402 52.7605 28.5194 53.0369 28.8488L54.7354 30.8731L53.4124 31.9832L49.6243 27.4683L50.6603 26.599L51.2759 27.0332L51.3516 26.9696C51.2919 26.7798 51.2748 26.5949 51.3004 26.415C51.3238 26.2325 51.3871 26.0571 51.4905 25.8889C51.5965 25.7185 51.7358 25.5608 51.9085 25.4159C52.1741 25.1931 52.4322 25.0716 52.6825 25.0517C52.9329 25.0318 53.165 25.0792 53.379 25.1939L53.4666 25.1203C53.412 24.8448 53.4236 24.5861 53.5013 24.3443C53.5818 24.1003 53.7415 23.878 53.9806 23.6774Z" fill="black"/>
<path d="M53.2633 24.2678C53.2031 24.4551 53.1772 24.6492 53.1838 24.8486C53.017 24.8034 52.8428 24.7882 52.6627 24.8025C52.3441 24.8279 52.0385 24.9805 51.7478 25.2244C51.5573 25.3842 51.3997 25.5614 51.2782 25.7569L51.2782 25.7569L51.2775 25.758C51.1573 25.9537 51.081 26.162 51.0527 26.3815C51.0443 26.4409 51.0398 26.5005 51.039 26.5602L50.8044 26.3947L50.6471 26.2837L50.4996 26.4075L49.4636 27.2768L49.2721 27.4375L49.4327 27.629L53.2209 32.1439L53.3816 32.3354L53.5731 32.1747L54.8961 31.0647L55.0876 30.904L54.9269 30.7125L53.2284 28.6881C52.9557 28.3631 52.7546 28.094 52.621 27.8791C52.4872 27.6639 52.4353 27.5147 52.4279 27.4212C52.4243 27.3471 52.4467 27.2938 52.5096 27.2411C52.5281 27.2255 52.5407 27.2202 52.5752 27.2287C52.6307 27.2424 52.7192 27.2866 52.8434 27.3907L52.8434 27.3908L52.8478 27.3943C52.9684 27.4909 53.1102 27.6338 53.2737 27.8286L55.3767 30.3351L55.5374 30.5266L55.7289 30.3659L57.0519 29.2559L57.2434 29.0952L57.0827 28.9037L55.2739 26.7478C54.9118 26.3162 54.6974 25.9953 54.607 25.7773C54.5671 25.6782 54.564 25.6116 54.5724 25.5682C54.5801 25.5284 54.6016 25.4857 54.6574 25.4389C54.6744 25.4247 54.6864 25.4213 54.7026 25.4215C54.7248 25.4216 54.7689 25.4298 54.8395 25.4694C54.9874 25.5521 55.1838 25.7269 55.4295 26.0197L57.5325 28.5262L57.6932 28.7178L57.8847 28.5571L59.2077 27.447L59.3992 27.2864L59.2386 27.0948L56.7744 24.158C56.2905 23.5812 55.7977 23.2023 55.2917 23.0823C54.7683 22.9561 54.2715 23.107 53.8199 23.4858C53.5529 23.7099 53.3617 23.9692 53.2639 24.2661L53.2639 24.2661L53.2633 24.2678Z" stroke="#696969" stroke-opacity="0.2" stroke-width="0.5"/>
<path d="M48.6337 28.2737L52.625 32.6101L51.3543 33.7797L47.363 29.4433L48.6337 28.2737ZM46.392 27.1132C46.6268 26.8972 46.8494 26.796 47.0599 26.8096C47.2704 26.8232 47.4766 26.9398 47.6786 27.1592C47.8806 27.3786 47.9759 27.5949 47.9646 27.8079C47.9533 28.021 47.8354 28.2308 47.6109 28.4375C47.3889 28.6418 47.17 28.742 46.9542 28.7379C46.7409 28.7315 46.5333 28.6186 46.3314 28.3992C46.1247 28.1747 46.0245 27.9582 46.0306 27.7499C46.0368 27.5415 46.1573 27.3293 46.392 27.1132Z" fill="black"/>
<path d="M48.8177 28.1044L48.6484 27.9205L48.4644 28.0898L47.1937 29.2593L47.0098 29.4286L47.1791 29.6126L51.1703 33.949L51.3396 34.1329L51.5236 33.9636L52.7943 32.7941L52.9782 32.6248L52.8089 32.4408L48.8177 28.1044ZM46.9467 28.9878L46.9467 28.9878L46.9495 28.9879C47.2515 28.9935 47.5299 28.8519 47.7802 28.6215C48.032 28.3897 48.1983 28.123 48.2143 27.8212C48.2303 27.5178 48.0916 27.2388 47.8625 26.9899C47.6351 26.7428 47.3732 26.5794 47.0761 26.5601C46.7691 26.5402 46.4822 26.6905 46.2227 26.9293C45.9643 27.1672 45.7898 27.4383 45.7808 27.7424C45.7719 28.041 45.9169 28.3181 46.1474 28.5685C46.3765 28.8174 46.6431 28.9787 46.9467 28.9878Z" stroke="#696969" stroke-opacity="0.2" stroke-width="0.5"/>
<path d="M49.363 33.0053C49.6703 33.2961 49.8724 33.5972 49.9693 33.9085C50.0662 34.2198 50.0626 34.5339 49.9585 34.8508C49.8568 35.1651 49.6605 35.4759 49.3698 35.7832C49.1719 35.9923 48.96 36.1809 48.7341 36.3491C48.5081 36.5172 48.2569 36.659 47.9805 36.7746L46.7979 35.6555C47.0389 35.5876 47.2828 35.4937 47.5297 35.3741C47.7765 35.2495 47.9904 35.0915 48.1716 34.9001C48.2812 34.7842 48.3446 34.6795 48.3616 34.5858C48.3761 34.4897 48.3393 34.4 48.2511 34.3165C48.2033 34.2712 48.146 34.2409 48.0794 34.2256C48.0126 34.2054 47.9048 34.2108 47.756 34.2419C47.6072 34.273 47.3896 34.3415 47.1031 34.4476C46.8504 34.538 46.6051 34.5827 46.3672 34.582C46.1267 34.5788 45.896 34.53 45.675 34.4355C45.4541 34.341 45.2429 34.1984 45.0414 34.0077C44.6434 33.6311 44.448 33.2171 44.4552 32.7655C44.4623 32.3139 44.6768 31.8652 45.0987 31.4194C45.3085 31.1978 45.5378 31.0185 45.7867 30.8816C46.033 30.7423 46.3119 30.6267 46.6234 30.5347L47.2859 31.7417C47.0787 31.7891 46.8757 31.8548 46.6769 31.9388C46.478 32.0228 46.3083 32.1391 46.1677 32.2877C46.0843 32.3759 46.0387 32.4569 46.0309 32.5307C46.0231 32.6045 46.0532 32.6736 46.1212 32.7379C46.1666 32.7808 46.2189 32.8088 46.2781 32.8219C46.3397 32.8325 46.44 32.8223 46.579 32.7915C46.7154 32.7583 46.9236 32.7023 47.2036 32.6234C47.4637 32.5402 47.7175 32.4915 47.9649 32.4773C48.2122 32.4631 48.4524 32.4969 48.6852 32.5788C48.9179 32.6558 49.1438 32.798 49.363 33.0053Z" fill="black"/>
<path d="M47.8086 36.9562L47.9268 37.068L48.0769 37.0053C48.3709 36.8824 48.6401 36.7306 48.8833 36.5496C49.1211 36.3727 49.3438 36.1744 49.5513 35.9551C49.8606 35.6282 50.0802 35.2863 50.1962 34.9283C50.3159 34.5634 50.3207 34.1962 50.208 33.8342C50.0951 33.4716 49.8642 33.1355 49.5348 32.8238C49.2957 32.5975 49.0397 32.4332 48.766 32.3422C48.5025 32.2499 48.23 32.2117 47.9506 32.2277C47.6815 32.2431 47.4084 32.2958 47.1316 32.3839C46.8561 32.4615 46.6537 32.516 46.5224 32.548C46.4601 32.5617 46.4113 32.5698 46.3744 32.5735C46.3471 32.5762 46.3314 32.5761 46.3245 32.5758C46.3139 32.5724 46.304 32.5667 46.2931 32.5563C46.2892 32.5526 46.2861 32.5495 46.2838 32.5468C46.2851 32.5441 46.2867 32.5409 46.2888 32.5372C46.299 32.519 46.3176 32.493 46.3493 32.4596C46.4648 32.3374 46.6054 32.2404 46.7742 32.1691C46.9598 32.0907 47.1489 32.0295 47.3417 31.9854L47.6643 31.9116L47.5051 31.6214L46.8426 30.4144L46.7457 30.2379L46.5526 30.2949C46.2261 30.3914 45.9297 30.5137 45.6649 30.6632C45.3922 30.8134 45.143 31.0089 44.9171 31.2476C44.4679 31.7223 44.2136 32.2279 44.2052 32.7615C44.1967 33.2978 44.4324 33.7757 44.8695 34.1893C45.0893 34.3972 45.3248 34.5576 45.5767 34.6653C45.8277 34.7727 46.0907 34.8283 46.3639 34.8319L46.3639 34.8319L46.3663 34.832C46.6367 34.8329 46.9108 34.7819 47.1873 34.683L47.1873 34.683L47.1898 34.682C47.4739 34.5769 47.6773 34.5137 47.8072 34.4866C47.8735 34.4727 47.9241 34.466 47.961 34.4642C47.9946 34.4625 48.0079 34.4653 48.008 34.4652L48.015 34.4673L48.0233 34.4692C48.0483 34.475 48.0651 34.4847 48.0793 34.4981C48.1039 34.5214 48.1116 34.5364 48.1136 34.5413C48.1145 34.5436 48.1146 34.5446 48.1146 34.5447L48.1147 34.5447C48.1147 34.5447 48.1147 34.545 48.1147 34.5455C48.1082 34.5719 48.0809 34.6322 47.99 34.7283C47.8301 34.8973 47.6403 35.038 47.4188 35.15C47.1846 35.2634 46.955 35.3515 46.73 35.4149L46.3062 35.5345L46.626 35.8371L47.8086 36.9562Z" stroke="#696969" stroke-opacity="0.2" stroke-width="0.5"/>
<path d="M46.0891 37.0422C46.1577 36.979 46.2202 36.898 46.2764 36.7992C46.3324 36.6957 46.3847 36.5793 46.4332 36.4498L47.3561 37.4526C47.3072 37.6437 47.234 37.8218 47.1365 37.987C47.0413 38.15 46.9162 38.3029 46.7612 38.4455C46.5155 38.6717 46.267 38.8015 46.0156 38.8349C45.7619 38.8657 45.4974 38.8028 45.2223 38.646C44.9448 38.4867 44.6498 38.2373 44.3375 37.8979L42.6219 36.034L42.2401 36.3855L41.6201 35.7119L41.7953 34.9426L41.2159 33.7933L41.963 33.1057L42.7626 33.9745L43.4699 33.3235L44.4316 34.3684L43.7243 35.0194L45.4258 36.868C45.555 37.0083 45.6746 37.0938 45.7846 37.1245C45.8946 37.1552 45.9961 37.1278 46.0891 37.0422Z" fill="black"/>
<path d="M45.6098 36.6987L44.0776 35.034L44.6009 34.5523L44.7849 34.383L44.6156 34.1991L43.6539 33.1542L43.4846 32.9703L43.3006 33.1396L42.7773 33.6212L42.1469 32.9364L41.9776 32.7524L41.7937 32.9217L41.0466 33.6094L40.9076 33.7373L40.9926 33.9059L41.5315 34.9748L41.3763 35.6564L41.3471 35.7845L41.4361 35.8812L42.0561 36.5548L42.2254 36.7387L42.4094 36.5694L42.6073 36.3873L44.1535 38.0673C44.4762 38.4179 44.7907 38.6865 45.0978 38.8628L45.0985 38.8632C45.409 39.0401 45.7271 39.1218 46.0458 39.083L46.0458 39.0831L46.0485 39.0827C46.3648 39.0406 46.6589 38.8795 46.9305 38.6294C47.1016 38.472 47.243 38.3002 47.3521 38.1135C47.4618 37.9277 47.5438 37.7277 47.5983 37.5146L47.632 37.3831L47.5401 37.2832L46.6171 36.2805L46.3417 35.9812L46.1991 36.3621C46.1543 36.4816 46.1071 36.5865 46.0578 36.6778C46.0121 36.7578 45.9653 36.8163 45.9198 36.8583C45.897 36.8793 45.8829 36.8843 45.878 36.8856C45.8744 36.8866 45.8674 36.8881 45.8518 36.8837C45.8074 36.8713 45.7262 36.8252 45.6098 36.6987Z" stroke="#696969" stroke-opacity="0.2" stroke-width="0.5"/>
<path d="M40.7893 36.0409C40.8404 35.9939 40.895 35.9483 40.9533 35.9041C41.0116 35.8599 41.0897 35.8116 41.1875 35.7592L42.3418 37.2207C42.2743 37.2498 42.2052 37.2899 42.1343 37.3409C42.0635 37.392 41.9873 37.4551 41.9056 37.5302C41.7806 37.6453 41.6898 37.7643 41.6331 37.8871C41.5791 38.0075 41.5567 38.1318 41.5662 38.2598C41.5758 38.3829 41.617 38.5122 41.69 38.6478C41.7605 38.7808 41.8616 38.9187 41.9931 39.0616L43.9975 41.2394L42.7268 42.4089L38.7356 38.0725L39.7077 37.1778L40.5291 37.7014L40.5903 37.6451C40.5333 37.4807 40.4942 37.2999 40.4729 37.1027C40.4493 36.9029 40.4597 36.7095 40.5043 36.5224C40.5514 36.3329 40.6464 36.1724 40.7893 36.0409Z" fill="black"/>
<path d="M41.3837 35.6042L41.254 35.44L41.0696 35.5388C40.9654 35.5945 40.8748 35.6498 40.8022 35.7049C40.7379 35.7537 40.6772 35.8043 40.62 35.8569C40.4409 36.0218 40.3206 36.2253 40.2617 36.462L40.2617 36.462L40.2611 36.4644C40.2095 36.681 40.1978 36.9036 40.2245 37.1308C40.2276 37.1599 40.2312 37.1888 40.235 37.2175L39.8421 36.967L39.68 36.8636L39.5384 36.9938L38.5663 37.8886L38.3823 38.0579L38.5517 38.2418L42.5429 42.5782L42.7122 42.7622L42.8961 42.5929L44.1668 41.4233L44.3508 41.254L44.1815 41.0701L42.177 38.8923C42.056 38.7609 41.9689 38.6402 41.9108 38.5306L41.9108 38.5306L41.9101 38.5293C41.8499 38.4173 41.8219 38.3218 41.8154 38.2409C41.8093 38.1561 41.8236 38.0738 41.8607 37.9906C41.9005 37.9047 41.9687 37.812 42.0749 37.7142C42.1511 37.6441 42.2196 37.5877 42.2805 37.5437C42.3393 37.5013 42.3928 37.471 42.4408 37.4502L42.7398 37.3212L42.538 37.0657L41.3837 35.6042Z" stroke="#696969" stroke-opacity="0.2" stroke-width="0.5"/>
<path d="M36.484 40.5303C36.8079 40.1923 37.1601 39.9751 37.5406 39.8786C37.9212 39.7822 38.3154 39.8093 38.7233 39.96C39.1337 40.1082 39.5466 40.3814 39.9623 40.7797L40.6159 41.4058L38.669 43.4378C38.9545 43.7113 39.2187 43.8516 39.4616 43.8587C39.7045 43.8609 39.9435 43.7392 40.1786 43.4938C40.3657 43.2985 40.5146 43.093 40.6253 42.8772C40.7359 42.6615 40.8247 42.3984 40.8917 42.0879L41.9096 43.0631C41.8421 43.3491 41.7314 43.62 41.5774 43.876C41.4235 44.1319 41.229 44.3825 40.9939 44.6279C40.6004 45.0386 40.1963 45.295 39.7815 45.397C39.3666 45.4942 38.9377 45.4482 38.4946 45.259C38.0515 45.0698 37.5946 44.7497 37.1238 44.2987C36.6481 43.8429 36.3049 43.3965 36.0945 42.9595C35.8839 42.5176 35.8098 42.0936 35.8723 41.6876C35.9346 41.2767 36.1385 40.8909 36.484 40.5303ZM37.4743 41.4216C37.3496 41.5518 37.3015 41.7147 37.3302 41.9103C37.3614 42.1034 37.5159 42.3331 37.7938 42.5994L38.6359 41.7205C38.4556 41.5477 38.2936 41.4261 38.1498 41.3556C38.0036 41.2827 37.8742 41.2548 37.7618 41.2719C37.6517 41.2865 37.5559 41.3364 37.4743 41.4216Z" fill="black"/>
<path d="M39.4664 43.6087C39.3528 43.6047 39.2086 43.5526 39.0321 43.4203L40.731 41.6471L40.6473 42.0352C40.5836 42.3305 40.501 42.5717 40.4028 42.7631C40.3044 42.955 40.1704 43.1411 39.9981 43.3209C39.7923 43.5357 39.6159 43.6092 39.4664 43.6087ZM41.0646 41.9074L40.7606 41.6161L40.7964 41.5788L40.9693 41.3983L40.7888 41.2253L40.1353 40.5991C39.7023 40.1844 39.2607 39.8884 38.8091 39.7252C38.3594 39.5592 37.9137 39.5262 37.4792 39.6363C37.0451 39.7463 36.6534 39.9921 36.3035 40.3574C35.9297 40.7475 35.6967 41.1785 35.6251 41.6499C35.5538 42.1142 35.6409 42.5888 35.8688 43.067L35.8688 43.067L35.8692 43.068C36.0964 43.5396 36.4607 44.0096 36.9509 44.4792C37.4362 44.9442 37.9178 45.2846 38.3964 45.4889C38.8818 45.6962 39.3652 45.7513 39.8385 45.6404L39.8385 45.6405L39.8413 45.6398C40.315 45.5232 40.7587 45.2347 41.1744 44.8009C41.4206 44.5439 41.6269 44.2787 41.7917 44.0048C41.9587 43.7271 42.0794 43.4321 42.1529 43.1205L42.1857 42.9815L42.0825 42.8826L41.0646 41.9074ZM38.0383 41.5793L38.0383 41.5793L38.0398 41.5801C38.1074 41.6132 38.1859 41.664 38.2753 41.7354L37.7936 42.2383C37.6513 42.0742 37.5909 41.9528 37.5773 41.8721C37.5592 41.7454 37.5894 41.6628 37.6548 41.5945C37.6997 41.5476 37.7445 41.5264 37.7947 41.5197L37.7947 41.5198L37.7994 41.5191C37.8431 41.5124 37.9188 41.5198 38.0383 41.5793Z" stroke="#696969" stroke-opacity="0.2" stroke-width="0.5"/>
<path d="M36.5805 48.8897L31.3569 45.6876L32.6735 44.4758L35.0547 46.1796C35.2215 46.2994 35.3833 46.4214 35.5401 46.5457C35.6946 46.6675 35.8497 46.8052 36.0053 46.9589L36.0359 46.9308C35.9165 46.7908 35.7989 46.6375 35.6831 46.4707C35.5699 46.3016 35.4572 46.1202 35.3449 45.9266L33.8562 43.3873L35.1728 42.1755L37.9431 47.6356L36.5805 48.8897Z" fill="black"/>
<path d="M36.4499 49.1029L36.6109 49.2015L36.7498 49.0737L38.1124 47.8196L38.2517 47.6914L38.166 47.5225L35.3957 42.0624L35.2463 41.768L35.0035 41.9915L33.6868 43.2034L33.5385 43.3399L33.6405 43.5138L35.0005 45.8335L32.819 44.2725L32.6537 44.1543L32.5042 44.2919L31.1876 45.5037L30.9441 45.7278L31.2262 45.9008L36.4499 49.1029Z" stroke="#696969" stroke-opacity="0.2" stroke-width="0.5"/>
<path d="M29.4933 47.1228C29.8684 46.7776 30.2886 46.6478 30.7538 46.7333C31.219 46.8188 31.6841 47.1142 32.1491 47.6194L34.7453 50.4402L33.4746 51.6097L31.2518 49.1947C30.9888 48.9089 30.7674 48.7144 30.5876 48.6113C30.4054 48.5055 30.2353 48.5255 30.0771 48.6711C29.8985 48.8355 29.8642 49.0414 29.9742 49.289C30.0867 49.5341 30.3684 49.9017 30.8193 50.3916L32.6441 52.3742L31.3734 53.5437L27.3822 49.2073L28.3773 48.2914L29.0121 48.6969L29.0848 48.63C29.0243 48.4311 28.9989 48.2448 29.0086 48.0709C29.0159 47.8945 29.0608 47.7283 29.1434 47.5722C29.2236 47.4135 29.3402 47.2637 29.4933 47.1228Z" fill="black"/>
<path d="M34.9146 50.6241L35.0986 50.4548L34.9293 50.2709L32.333 47.4501C31.8473 46.9224 31.3368 46.5863 30.799 46.4874C30.2498 46.3864 29.7517 46.5452 29.324 46.9389C29.1532 47.0961 29.0171 47.2686 28.9213 47.4573C28.8223 47.6452 28.7679 47.8466 28.7589 48.0588C28.7556 48.1182 28.7559 48.1782 28.7594 48.2388L28.5119 48.0807L28.3496 47.9771L28.208 48.1075L27.2129 49.0234L27.0289 49.1927L27.1982 49.3766L31.1895 53.713L31.3588 53.8969L31.5427 53.7276L32.8134 52.5581L32.9974 52.3888L32.828 52.2049L31.0033 50.2223C30.5526 49.7327 30.2967 49.3914 30.202 49.1861C30.1616 49.0946 30.157 49.0319 30.164 48.9899C30.1706 48.9505 30.1911 48.9059 30.2464 48.855C30.2967 48.8087 30.3317 48.7977 30.3524 48.7952C30.3726 48.7929 30.4068 48.7954 30.4621 48.8275L30.4621 48.8275L30.4632 48.8281C30.6092 48.9119 30.8098 49.0836 31.0679 49.364L33.2907 51.779L33.46 51.963L33.6439 51.7937L34.9146 50.6241Z" stroke="#696969" stroke-opacity="0.2" stroke-width="0.5"/>
<path d="M28.2797 51.6835C28.5357 51.9616 28.7563 52.2628 28.9417 52.5871C29.1272 52.9065 29.2509 53.238 29.3128 53.5817C29.3746 53.9254 29.3519 54.2668 29.2445 54.606C29.1374 54.9402 28.9167 55.2612 28.5825 55.5688C28.2763 55.8506 27.9547 56.0312 27.6176 56.1105C27.2782 56.1872 26.9396 56.1854 26.6018 56.1052C26.2616 56.0224 25.9338 55.8787 25.6183 55.6742C25.3005 55.4671 25.0101 55.2207 24.747 54.9349C24.3642 54.519 24.0778 54.0875 23.8877 53.6403C23.6953 53.1906 23.6376 52.7464 23.7147 52.3079C23.7943 51.8669 24.0447 51.4527 24.4657 51.0652C24.8178 50.7411 25.2063 50.5462 25.6311 50.4803C26.0536 50.412 26.4903 50.4767 26.941 50.6745C27.3943 50.87 27.8405 51.2063 28.2797 51.6835ZM26.0433 53.7701C26.2805 54.0279 26.4967 54.2295 26.6919 54.375C26.8897 54.5182 27.0654 54.6015 27.219 54.6251C27.3727 54.6486 27.5056 54.6087 27.6179 54.5054C27.7378 54.395 27.7923 54.2648 27.7813 54.1146C27.768 53.9619 27.6945 53.7821 27.5607 53.5753C27.4269 53.3686 27.2379 53.1325 26.9937 52.8671C26.7494 52.6017 26.5322 52.3964 26.3419 52.2511C26.1515 52.1058 25.982 52.0214 25.8333 51.9981C25.6845 51.9747 25.5502 52.0182 25.4303 52.1286C25.2619 52.2836 25.2274 52.4945 25.3267 52.7612C25.4287 53.0256 25.6675 53.3619 26.0433 53.7701Z" fill="black"/>
<path d="M29.4826 54.6823L29.4829 54.6814C29.6022 54.3043 29.628 53.9218 29.5588 53.5374C29.4916 53.1638 29.3574 52.8051 29.1583 52.4623C28.9636 52.1218 28.732 51.8057 28.4636 51.5142C28.008 51.0192 27.5344 50.6583 27.0407 50.4453C26.5532 50.2314 26.0684 50.1565 25.592 50.2334C25.1131 50.3078 24.6804 50.5278 24.2964 50.8813C23.8465 51.2954 23.5604 51.7556 23.4687 52.2634L23.4687 52.2634L23.4685 52.2646C23.3822 52.7555 23.4483 53.2487 23.6578 53.7384C23.8607 54.2157 24.1641 54.6708 24.5631 55.1042C24.8399 55.405 25.1462 55.665 25.4819 55.8837L25.4823 55.884C25.8196 56.1026 26.1732 56.2581 26.5426 56.3481L26.5426 56.3481L26.544 56.3484C26.919 56.4375 27.2962 56.4394 27.6727 56.3543L27.6728 56.3543L27.6749 56.3538C28.0615 56.2629 28.4204 56.0578 28.7518 55.7528C29.1088 55.4242 29.359 55.0681 29.4826 54.6823ZM27.2569 54.378C27.1589 54.363 27.0214 54.3047 26.8399 54.1735C26.6616 54.0404 26.4575 53.851 26.2272 53.6008C25.8571 53.1987 25.6452 52.8912 25.5605 52.6726C25.5216 52.5676 25.5166 52.4938 25.5248 52.4434C25.5324 52.3972 25.5534 52.3551 25.5996 52.3126C25.6687 52.2489 25.728 52.2346 25.7945 52.2451C25.8848 52.2592 26.0153 52.3163 26.1901 52.4498C26.3646 52.583 26.571 52.777 26.8097 53.0364C27.0484 53.2957 27.2274 53.5203 27.3508 53.7111C27.4737 53.901 27.5234 54.0399 27.5321 54.1345C27.5366 54.201 27.5171 54.2584 27.4486 54.3215C27.3934 54.3723 27.3371 54.3903 27.2569 54.378Z" stroke="#696969" stroke-opacity="0.2" stroke-width="0.5"/>
<path d="M24.0963 58.5029C23.6496 58.7827 23.2216 58.9259 22.8125 58.9325C22.4016 58.9361 22.0039 58.7944 21.6195 58.5072C21.2351 58.2201 20.8589 57.7826 20.4908 57.1948C20.1872 56.7098 19.9811 56.2272 19.8726 55.7468C19.7671 55.2646 19.7915 54.8136 19.9459 54.3937C20.0985 53.9708 20.4114 53.6112 20.8846 53.3149C21.1608 53.1419 21.4309 53.0178 21.6948 52.9426C21.9598 52.8626 22.2303 52.8242 22.5063 52.8272L22.8472 54.2341C22.6347 54.228 22.4403 54.2475 22.2638 54.2925C22.0856 54.3345 21.9201 54.4034 21.7672 54.4991C21.635 54.5819 21.5535 54.7066 21.5227 54.8731C21.492 55.0397 21.5122 55.2418 21.5833 55.4796C21.6556 55.7126 21.7837 55.9761 21.9678 56.27C22.15 56.561 22.3292 56.7883 22.5054 56.9521C22.6798 57.113 22.8482 57.2121 23.0107 57.2495C23.1743 57.282 23.3311 57.2514 23.481 57.1575C23.672 57.0379 23.8386 56.8825 23.9807 56.6912C24.1209 56.497 24.2356 56.2717 24.3247 56.0155L25.1032 57.2587C25.0178 57.5209 24.8908 57.7559 24.7222 57.9637C24.5548 58.1668 24.3462 58.3465 24.0963 58.5029Z" fill="black"/>
<path d="M22.8147 59.1824L22.8165 59.1824C23.2826 59.1749 23.7546 59.0119 24.229 58.7148C24.4989 58.5458 24.7287 58.3489 24.9151 58.1228L24.9151 58.1228L24.9164 58.1212C25.1048 57.8889 25.2463 57.6266 25.3409 57.3362L25.3771 57.2251L25.3151 57.126L24.5366 55.8828L24.2598 55.4408L24.0886 55.9334C24.0066 56.1691 23.9029 56.3716 23.779 56.5435C23.6546 56.7105 23.511 56.8437 23.3483 56.9456C23.2501 57.0071 23.1589 57.0232 23.0631 57.005C22.9579 56.9799 22.8285 56.91 22.6752 56.7687C22.5204 56.6247 22.3546 56.4167 22.1797 56.1373C22.003 55.8552 21.8864 55.6122 21.8225 55.4068C21.7581 55.1912 21.7476 55.032 21.7686 54.9185C21.7878 54.8143 21.8325 54.7532 21.8999 54.711C22.0292 54.63 22.1692 54.5717 22.3213 54.5358L22.3213 54.5358L22.3256 54.5347C22.4761 54.4963 22.647 54.4785 22.84 54.484L23.1672 54.4933L23.0901 54.1752L22.7493 52.7684L22.7035 52.5794L22.5091 52.5773C22.2082 52.5739 21.913 52.6158 21.6244 52.7027C21.3347 52.7855 21.0438 52.9202 20.7519 53.103C20.2433 53.4215 19.8869 53.8213 19.711 54.3081C19.5387 54.7771 19.5138 55.2768 19.6284 55.8003L19.6284 55.8003L19.6288 55.8019C19.7444 56.3138 19.9627 56.8224 20.2789 57.3275C20.6567 57.9308 21.0524 58.3956 21.4699 58.7075C21.8905 59.0217 22.3403 59.1867 22.8147 59.1824Z" stroke="#696969" stroke-opacity="0.2" stroke-width="0.5"/>
</g>
<defs>
<filter id="filter0_d_7_3" x="6.96676" y="17.143" width="67.0239" height="50.0458" filterUnits="userSpaceOnUse" color-interpolation-filters="sRGB">
<feFlood flood-opacity="0" result="BackgroundImageFix"/>
<feColorMatrix in="SourceAlpha" type="matrix" values="0 0 0 0 0 0 0 0 0 0 0 0 0 0 0 0 0 0 127 0" result="hardAlpha"/>
<feOffset dy="2"/>
<feGaussianBlur stdDeviation="1"/>
<feComposite in2="hardAlpha" operator="out"/>
<feColorMatrix type="matrix" values="0 0 0 0 0 0 0 0 0 0 0 0 0 0 0 0 0 0 0.25 0"/>
<feBlend mode="normal" in2="BackgroundImageFix" result="effect1_dropShadow_7_3"/>
<feBlend mode="normal" in="SourceGraphic" in2="effect1_dropShadow_7_3" result="shape"/>
</filter>
<filter id="filter1_d_7_3" x="15.3084" y="19.3729" width="52.2655" height="48.0596" filterUnits="userSpaceOnUse" color-interpolation-filters="sRGB">
<feFlood flood-opacity="0" result="BackgroundImageFix"/>
<feColorMatrix in="SourceAlpha" type="matrix" values="0 0 0 0 0 0 0 0 0 0 0 0 0 0 0 0 0 0 127 0" result="hardAlpha"/>
<feOffset dy="4"/>
<feGaussianBlur stdDeviation="2"/>
<feComposite in2="hardAlpha" operator="out"/>
<feColorMatrix type="matrix" values="0 0 0 0 0 0 0 0 0 0 0 0 0 0 0 0 0 0 0.25 0"/>
<feBlend mode="normal" in2="BackgroundImageFix" result="effect1_dropShadow_7_3"/>
<feBlend mode="normal" in="SourceGraphic" in2="effect1_dropShadow_7_3" result="shape"/>
</filter>
</defs>
</svg>
