<svg width="68" height="52" viewBox="0 0 68 52" fill="none" xmlns="http://www.w3.org/2000/svg">
<g filter="url(#filter0_d_3_2)">
<path d="M52.6319 1.70295C56.3406 1.32247 59.3048 3.10332 61.5246 7.04551C63.7905 10.8671 65.1998 15.4716 65.7525 20.859C66.3993 27.1633 65.7288 32.3287 63.741 36.3551C61.7531 40.3814 58.9628 42.5789 55.3701 42.9475C52.6465 43.2269 49.4627 41.874 45.8186 38.8888C42.2324 35.8976 45.6032 37.8332 41.5283 33.5022L41.9172 32.6866C45.4001 36.3834 42.9526 32.9279 46.2834 35.7136C49.6142 38.4994 52.5255 39.7644 55.0173 39.5088C58.0885 39.1937 60.4564 37.445 62.1209 34.2626C63.7854 31.0802 64.4177 27.5404 64.0179 23.6431C63.6886 20.4337 62.7576 17.923 61.2249 16.1111C59.7501 14.2933 57.7668 13.5122 55.2751 13.7678C52.6674 14.0353 51.0067 16.0371 48.3789 18.3916C45.7394 20.6316 43.0948 23.3933 40.4452 26.6767C37.7838 29.8455 35.1283 33.0716 32.4787 36.3551C29.8753 39.518 27.2887 42.2737 24.7188 44.6223C22.1952 46.8503 18.7594 47.3985 16.3255 47.6482C12.6168 48.0287 9.62365 46.2508 7.34596 42.3145C5.12622 38.3723 3.74587 33.7649 3.20493 28.4921C2.55815 22.1878 3.22867 17.0224 5.21648 12.9961C7.26224 8.96374 10.0525 6.76627 13.5874 6.40362C16.311 6.1242 19.4658 7.48008 23.0519 10.4713C26.696 13.4565 24.8142 13.3786 28.8891 17.7096L28.101 17.7905C24.6761 14.0878 26.0628 16.4173 22.6741 13.6375C19.3432 10.8518 16.4319 9.58672 13.9402 9.84235C10.8689 10.1574 8.50104 11.9062 6.83655 15.0886C5.17206 18.2709 4.53973 21.8107 4.93955 25.708C5.26882 28.9175 6.17085 31.4311 7.64562 33.249C9.17835 35.0608 11.1906 35.839 13.6824 35.5833C16.29 35.3158 18.9137 34.0621 21.5532 31.8221C24.181 29.4676 26.8256 26.7059 29.4869 23.5371C32.1366 20.2536 34.7631 17.0305 37.3665 13.8676C40.0161 10.5842 42.6027 7.82843 45.1264 5.60039C47.6962 3.25179 50.1981 1.95265 52.6319 1.70295Z" fill="white"/>
<path d="M40.3825 30.1545L41.0102 35.9855L45.602 32.6972L40.3825 30.1545ZM42.6161 34.2075L45.1899 37.8933L45.9852 37.3238L43.4114 33.6379L42.6161 34.2075Z" fill="white"/>
<path d="M30.803 20.5925L29.7638 14.8354L25.4074 18.4605L30.803 20.5925ZM28.2846 16.7285L25.4578 13.2628L24.7032 13.8907L27.5301 17.3564L28.2846 16.7285Z" fill="white"/>
</g>
<g filter="url(#filter1_d_3_2)">
<path d="M52.7457 4.65947C53.1847 4.3316 53.6918 4.29483 54.2669 4.54915C54.84 4.80068 55.4118 5.30849 55.9825 6.07257C56.3581 6.57547 56.6262 7.05042 56.7869 7.4974C56.9455 7.9416 56.9957 8.33912 56.9374 8.68994C56.8798 9.03592 56.7107 9.3137 56.4301 9.52328C56.2884 9.62911 56.1374 9.70509 55.9771 9.75124C55.8196 9.79531 55.6507 9.80676 55.4704 9.78558C55.2908 9.75956 55.0978 9.69813 54.8913 9.60131L54.8496 9.63244C55.0212 9.83322 55.1668 10.008 55.2865 10.1566C55.4069 10.3004 55.5003 10.4168 55.5667 10.5057L56.874 12.2561L55.4903 13.2895L50.4323 6.51701L51.5451 5.68594L52.2038 6.14191L52.2705 6.09211C52.2308 5.81876 52.2233 5.59715 52.2479 5.42728C52.2732 5.25255 52.3276 5.10805 52.4111 4.99378C52.4952 4.87466 52.6068 4.76322 52.7457 4.65947ZM53.1422 6.15525C53.0171 6.24863 52.9458 6.36466 52.9282 6.50333C52.9106 6.64201 52.949 6.81236 53.0437 7.01438C53.1383 7.2164 53.2924 7.4605 53.5062 7.74668L53.7116 8.02175C53.8984 8.27181 54.07 8.46393 54.2265 8.59811C54.3809 8.7295 54.5246 8.80609 54.6577 8.82786C54.7916 8.84477 54.9196 8.80758 55.0418 8.71628C55.1474 8.63742 55.2017 8.5276 55.2048 8.38682C55.2058 8.24325 55.1545 8.06733 55.0509 7.85905C54.95 7.64869 54.7979 7.40737 54.5946 7.13508C54.2605 6.68775 53.9722 6.38581 53.7298 6.22926C53.4881 6.06787 53.2922 6.0432 53.1422 6.15525Z" fill="black"/>
<path d="M57.0223 7.41333L57.0222 7.41282C56.8509 6.93646 56.5687 6.43974 56.1828 5.92298C55.5988 5.14105 54.9957 4.59608 54.3676 4.32035C53.7248 4.03618 53.1193 4.0684 52.5961 4.45916C52.4406 4.57531 52.3097 4.7044 52.208 4.84792C52.096 5.00197 52.0301 5.18685 52.0005 5.39142C51.9875 5.4811 51.9823 5.57946 51.9841 5.68577L51.6874 5.48039L51.5396 5.37805L51.3955 5.48564L50.2828 6.31671L50.0824 6.4663L50.232 6.6666L55.29 13.4391L55.4396 13.6394L55.6399 13.4898L57.0236 12.4564L57.2239 12.3068L57.0743 12.1065L55.767 10.3561C55.704 10.2717 55.6199 10.1664 55.5157 10.0411C55.6983 10.0548 55.8752 10.0393 56.0445 9.992L56.0463 9.99148C56.2373 9.9365 56.4153 9.84637 56.5797 9.72358C56.9121 9.47535 57.1159 9.14047 57.184 8.73098L57.184 8.73091C57.2512 8.32665 57.1908 7.88496 57.0223 7.41333ZM54.8254 7.96711L54.8254 7.96712L54.827 7.9704C54.9221 8.16155 54.9549 8.29588 54.9548 8.38324C54.953 8.45196 54.9311 8.48696 54.8923 8.51597C54.8164 8.57263 54.7533 8.58686 54.6936 8.58036C54.6228 8.56757 54.5218 8.52106 54.3889 8.40805C54.2516 8.29029 54.0925 8.114 53.9119 7.87216L53.7065 7.59709C53.4976 7.31744 53.3545 7.08867 53.2701 6.90835C53.1846 6.72595 53.1671 6.60632 53.1762 6.53485C53.1842 6.4716 53.2141 6.41354 53.2917 6.35555C53.3129 6.33979 53.3805 6.29665 53.591 6.43718L53.591 6.4372L53.5942 6.43929C53.7979 6.57086 54.0645 6.84318 54.3943 7.28467C54.5919 7.54929 54.734 7.77635 54.8254 7.96711Z" stroke="#696969" stroke-opacity="0.2" stroke-width="0.5"/>
<path d="M47.9806 8.18707C48.3844 7.84826 48.8021 7.73097 49.2336 7.8352C49.6628 7.93677 50.1126 8.26783 50.5829 8.82837L53.047 11.7652L51.7241 12.8753L49.621 10.3688C49.3691 10.0686 49.1494 9.86595 48.9616 9.76091C48.7739 9.65586 48.6189 9.65461 48.4967 9.75714C48.3108 9.91317 48.2704 10.1213 48.3756 10.3816C48.4813 10.637 48.7169 10.9825 49.0824 11.4182L50.8912 13.5741L49.5682 14.6841L47.4652 12.1776C47.2958 11.9757 47.1421 11.8195 47.0041 11.7089C46.8665 11.5935 46.7435 11.5224 46.635 11.4957C46.5266 11.469 46.4312 11.4902 46.3489 11.5593C46.2267 11.6618 46.1698 11.791 46.1783 11.9468C46.1895 12.1004 46.2663 12.2917 46.4087 12.5208C46.5511 12.7499 46.7605 13.0291 47.0369 13.3585L48.7354 15.3829L47.4124 16.4929L43.6243 11.978L44.6603 11.1087L45.2759 11.5429L45.3516 11.4794C45.2919 11.2895 45.2748 11.1046 45.3004 10.9247C45.3238 10.7422 45.3871 10.5668 45.4905 10.3986C45.5965 10.2282 45.7358 10.0705 45.9085 9.92566C46.1741 9.70277 46.4322 9.58135 46.6825 9.56142C46.9329 9.54149 47.165 9.58888 47.379 9.70361L47.4666 9.63005C47.412 9.3545 47.4236 9.09583 47.5013 8.85403C47.5818 8.60999 47.7415 8.38767 47.9806 8.18707Z" fill="black"/>
<path d="M47.2633 8.77747C47.2031 8.96483 47.1772 9.15892 47.1838 9.35829C47.017 9.3131 46.8428 9.29786 46.6627 9.31221C46.3441 9.33757 46.0385 9.49024 45.7478 9.73414C45.5573 9.89394 45.3997 10.0712 45.2782 10.2666L45.2782 10.2666L45.2775 10.2677C45.1573 10.4634 45.081 10.6717 45.0527 10.8913C45.0443 10.9507 45.0398 11.0102 45.039 11.0699L44.8044 10.9044L44.6471 10.7934L44.4996 10.9172L43.4636 11.7865L43.2721 11.9472L43.4327 12.1387L47.2209 16.6536L47.3816 16.8451L47.5731 16.6844L48.8961 15.5744L49.0876 15.4137L48.9269 15.2222L47.2284 13.1978C46.9557 12.8728 46.7546 12.6037 46.621 12.3888C46.4872 12.1736 46.4353 12.0244 46.4279 11.9309C46.4243 11.8569 46.4467 11.8035 46.5096 11.7508C46.5281 11.7353 46.5407 11.7299 46.5752 11.7384C46.6307 11.7521 46.7192 11.7963 46.8434 11.9004L46.8434 11.9005L46.8478 11.904C46.9684 12.0006 47.1102 12.1435 47.2737 12.3383L49.3767 14.8448L49.5374 15.0363L49.7289 14.8756L51.0519 13.7656L51.2434 13.6049L51.0827 13.4134L49.2739 11.2575C48.9118 10.8259 48.6974 10.505 48.607 10.287C48.5671 10.1879 48.564 10.1213 48.5724 10.0779C48.5801 10.0381 48.6016 9.99545 48.6574 9.94866C48.6744 9.93439 48.6864 9.93104 48.7026 9.93117C48.7248 9.93135 48.7689 9.93952 48.8395 9.97907C48.9874 10.0618 49.1838 10.2366 49.4295 10.5295L51.5325 13.036L51.6932 13.2275L51.8847 13.0668L53.2077 11.9568L53.3992 11.7961L53.2386 11.6046L50.7744 8.66768C50.2905 8.09089 49.7977 7.71198 49.2917 7.59206C48.7683 7.4658 48.2715 7.61668 47.8199 7.99555C47.5529 8.2196 47.3617 8.47895 47.2639 8.77576L47.2639 8.77576L47.2633 8.77747Z" stroke="#696969" stroke-opacity="0.2" stroke-width="0.5"/>
<path d="M42.6337 12.7835L46.625 17.1198L45.3543 18.2894L41.363 13.953L42.6337 12.7835ZM40.392 11.623C40.6268 11.4069 40.8494 11.3057 41.0599 11.3193C41.2704 11.3329 41.4766 11.4495 41.6786 11.6689C41.8806 11.8884 41.9759 12.1046 41.9646 12.3176C41.9533 12.5307 41.8354 12.7406 41.6109 12.9472C41.3889 13.1515 41.17 13.2517 40.9542 13.2476C40.7409 13.2413 40.5333 13.1283 40.3314 12.9089C40.1247 12.6844 40.0245 12.4679 40.0306 12.2596C40.0368 12.0512 40.1573 11.839 40.392 11.623Z" fill="black"/>
<path d="M42.8177 12.6142L42.6484 12.4302L42.4644 12.5995L41.1937 13.769L41.0098 13.9384L41.1791 14.1223L45.1703 18.4587L45.3396 18.6426L45.5236 18.4733L46.7943 17.3038L46.9782 17.1345L46.8089 16.9505L42.8177 12.6142ZM40.9467 13.4975L40.9467 13.4975L40.9495 13.4976C41.2515 13.5032 41.5299 13.3616 41.7802 13.1312C42.032 12.8994 42.1983 12.6327 42.2143 12.3309C42.2303 12.0275 42.0916 11.7485 41.8625 11.4996C41.6351 11.2525 41.3732 11.0891 41.0761 11.0698C40.7691 11.05 40.4822 11.2002 40.2227 11.439C39.9643 11.6769 39.7898 11.948 39.7808 12.2522C39.7719 12.5507 39.9169 12.8278 40.1474 13.0782C40.3765 13.3271 40.6431 13.4884 40.9467 13.4975Z" stroke="#696969" stroke-opacity="0.2" stroke-width="0.5"/>
<path d="M43.363 17.5151C43.6703 17.8058 43.8724 18.1069 43.9693 18.4182C44.0662 18.7295 44.0626 19.0436 43.9585 19.3605C43.8568 19.6748 43.6605 19.9857 43.3698 20.293C43.1719 20.502 42.96 20.6906 42.7341 20.8588C42.5081 21.0269 42.2569 21.1688 41.9805 21.2843L40.7979 20.1653C41.0389 20.0973 41.2828 20.0035 41.5297 19.8838C41.7765 19.7592 41.9904 19.6013 42.1716 19.4098C42.2812 19.2939 42.3446 19.1892 42.3616 19.0955C42.3761 18.9994 42.3393 18.9097 42.2511 18.8262C42.2033 18.781 42.146 18.7506 42.0794 18.7353C42.0126 18.7151 41.9048 18.7205 41.756 18.7516C41.6072 18.7827 41.3896 18.8513 41.1031 18.9573C40.8504 19.0477 40.6051 19.0925 40.3672 19.0917C40.1267 19.0885 39.896 19.0397 39.675 18.9452C39.4541 18.8507 39.2429 18.7081 39.0414 18.5175C38.6434 18.1409 38.448 17.7268 38.4552 17.2752C38.4623 16.8237 38.6768 16.375 39.0987 15.9291C39.3085 15.7075 39.5378 15.5282 39.7867 15.3913C40.033 15.252 40.3119 15.1364 40.6234 15.0444L41.2859 16.2514C41.0787 16.2988 40.8757 16.3645 40.6769 16.4485C40.478 16.5325 40.3083 16.6488 40.1677 16.7974C40.0843 16.8856 40.0387 16.9666 40.0309 17.0404C40.0231 17.1142 40.0532 17.1833 40.1212 17.2476C40.1666 17.2905 40.2189 17.3185 40.2781 17.3316C40.3397 17.3422 40.44 17.332 40.579 17.3012C40.7154 17.268 40.9236 17.212 41.2036 17.1331C41.4637 17.0499 41.7175 17.0012 41.9649 16.987C42.2122 16.9728 42.4524 17.0067 42.6852 17.0885C42.9179 17.1655 43.1438 17.3077 43.363 17.5151Z" fill="black"/>
<path d="M41.8086 21.4659L41.9268 21.5777L42.0769 21.515C42.3709 21.3921 42.6401 21.2404 42.8833 21.0593C43.1211 20.8824 43.3438 20.6841 43.5513 20.4648C43.8606 20.1379 44.0802 19.796 44.1962 19.438C44.3159 19.0731 44.3207 18.7059 44.208 18.3439C44.0951 17.9813 43.8642 17.6452 43.5348 17.3335C43.2957 17.1072 43.0397 16.9429 42.766 16.8519C42.5025 16.7596 42.23 16.7214 41.9506 16.7374C41.6815 16.7528 41.4084 16.8055 41.1316 16.8937C40.8561 16.9713 40.6537 17.0257 40.5224 17.0577C40.4601 17.0714 40.4113 17.0795 40.3744 17.0832C40.3471 17.086 40.3314 17.0858 40.3245 17.0855C40.3139 17.0821 40.304 17.0764 40.2931 17.066C40.2892 17.0623 40.2861 17.0592 40.2838 17.0565C40.2851 17.0538 40.2867 17.0506 40.2888 17.047C40.299 17.0287 40.3176 17.0027 40.3493 16.9693C40.4648 16.8471 40.6054 16.7501 40.7742 16.6788C40.9598 16.6004 41.1489 16.5392 41.3417 16.4951L41.6643 16.4213L41.5051 16.1311L40.8426 14.9241L40.7457 14.7476L40.5526 14.8047C40.2261 14.9011 39.9297 15.0234 39.6649 15.173C39.3922 15.3231 39.143 15.5186 38.9171 15.7573C38.4679 16.232 38.2136 16.7376 38.2052 17.2713C38.1967 17.8076 38.4324 18.2854 38.8695 18.699C39.0893 18.9069 39.3248 19.0673 39.5767 19.1751C39.8277 19.2824 40.0907 19.338 40.3639 19.3416L40.3639 19.3417L40.3663 19.3417C40.6367 19.3426 40.9108 19.2916 41.1873 19.1927L41.1873 19.1927L41.1898 19.1917C41.4739 19.0866 41.6773 19.0235 41.8072 18.9963C41.8735 18.9824 41.9241 18.9758 41.961 18.9739C41.9946 18.9722 42.0079 18.975 42.008 18.9749L42.015 18.977L42.0233 18.979C42.0483 18.9847 42.0651 18.9944 42.0793 19.0078C42.1039 19.0311 42.1116 19.0461 42.1136 19.051C42.1145 19.0533 42.1146 19.0543 42.1146 19.0544L42.1147 19.0544C42.1147 19.0544 42.1147 19.0547 42.1147 19.0552C42.1082 19.0816 42.0809 19.1419 41.99 19.238C41.8301 19.407 41.6403 19.5477 41.4188 19.6597C41.1846 19.7731 40.955 19.8612 40.73 19.9246L40.3062 20.0442L40.626 20.3468L41.8086 21.4659Z" stroke="#696969" stroke-opacity="0.2" stroke-width="0.5"/>
<path d="M40.0891 21.5519C40.1577 21.4888 40.2202 21.4077 40.2764 21.3089C40.3324 21.2054 40.3847 21.089 40.4332 20.9595L41.3561 21.9623C41.3072 22.1534 41.234 22.3316 41.1365 22.4967C41.0413 22.6597 40.9162 22.8126 40.7612 22.9552C40.5155 23.1814 40.267 23.3112 40.0156 23.3446C39.7619 23.3755 39.4974 23.3125 39.2223 23.1557C38.9448 22.9964 38.6498 22.747 38.3375 22.4077L36.6219 20.5437L36.2401 20.8952L35.6201 20.2216L35.7953 19.4523L35.2159 18.3031L35.963 17.6154L36.7626 18.4842L37.4699 17.8332L38.4316 18.8781L37.7243 19.5291L39.4258 21.3777C39.555 21.518 39.6746 21.6035 39.7846 21.6342C39.8946 21.6649 39.9961 21.6375 40.0891 21.5519Z" fill="black"/>
<path d="M39.6098 21.2084L38.0776 19.5437L38.6009 19.0621L38.7849 18.8927L38.6156 18.7088L37.6539 17.6639L37.4846 17.48L37.3006 17.6493L36.7773 18.131L36.1469 17.4461L35.9776 17.2622L35.7937 17.4315L35.0466 18.1191L34.9076 18.247L34.9926 18.4156L35.5315 19.4845L35.3763 20.1661L35.3471 20.2942L35.4361 20.3909L36.0561 21.0645L36.2254 21.2485L36.4094 21.0792L36.6073 20.897L38.1535 22.577C38.4762 22.9276 38.7907 23.1962 39.0978 23.3725L39.0985 23.3729C39.409 23.5498 39.7271 23.6315 40.0458 23.5928L40.0458 23.5928L40.0485 23.5924C40.3648 23.5504 40.6589 23.3892 40.9305 23.1392C41.1016 22.9817 41.243 22.8099 41.3521 22.6233C41.4618 22.4374 41.5438 22.2374 41.5983 22.0243L41.632 21.8928L41.5401 21.793L40.6171 20.7902L40.3417 20.491L40.1991 20.8718C40.1543 20.9913 40.1071 21.0963 40.0578 21.1875C40.0121 21.2675 39.9653 21.3261 39.9198 21.368C39.897 21.389 39.8829 21.394 39.878 21.3953C39.8744 21.3963 39.8674 21.3978 39.8518 21.3934C39.8074 21.381 39.7262 21.3349 39.6098 21.2084Z" stroke="#696969" stroke-opacity="0.2" stroke-width="0.5"/>
<path d="M34.7893 20.5506C34.8404 20.5036 34.895 20.458 34.9533 20.4138C35.0116 20.3696 35.0897 20.3213 35.1875 20.2689L36.3418 21.7304C36.2743 21.7595 36.2052 21.7996 36.1343 21.8506C36.0635 21.9017 35.9873 21.9648 35.9056 22.0399C35.7806 22.155 35.6898 22.274 35.6331 22.3968C35.5791 22.5173 35.5567 22.6415 35.5662 22.7695C35.5758 22.8926 35.617 23.0219 35.69 23.1575C35.7605 23.2905 35.8616 23.4284 35.9931 23.5713L37.9975 25.7491L36.7268 26.9186L32.7356 22.5822L33.7077 21.6875L34.5291 22.2111L34.5903 22.1548C34.5333 21.9904 34.4942 21.8096 34.4729 21.6124C34.4493 21.4127 34.4597 21.2192 34.5043 21.0321C34.5514 20.8426 34.6464 20.6821 34.7893 20.5506Z" fill="black"/>
<path d="M35.3837 20.114L35.254 19.9498L35.0696 20.0485C34.9654 20.1043 34.8748 20.1595 34.8022 20.2146C34.7379 20.2634 34.6772 20.314 34.62 20.3666C34.4409 20.5315 34.3206 20.735 34.2617 20.9717L34.2617 20.9717L34.2611 20.9742C34.2095 21.1907 34.1978 21.4134 34.2245 21.6405C34.2276 21.6697 34.2312 21.6985 34.235 21.7272L33.8421 21.4767L33.68 21.3733L33.5384 21.5035L32.5663 22.3983L32.3823 22.5676L32.5517 22.7515L36.5429 27.0879L36.7122 27.2719L36.8961 27.1026L38.1668 25.933L38.3508 25.7637L38.1815 25.5798L36.177 23.402C36.056 23.2706 35.9689 23.1499 35.9108 23.0403L35.9108 23.0403L35.9101 23.0391C35.8499 22.9271 35.8219 22.8315 35.8154 22.7506C35.8093 22.6658 35.8236 22.5835 35.8607 22.5003C35.9005 22.4144 35.9687 22.3217 36.0749 22.2239C36.1511 22.1538 36.2196 22.0974 36.2805 22.0534C36.3393 22.0111 36.3928 21.9807 36.4408 21.9599L36.7398 21.831L36.538 21.5754L35.3837 20.114Z" stroke="#696969" stroke-opacity="0.2" stroke-width="0.5"/>
<path d="M30.484 25.0401C30.8079 24.702 31.1601 24.4848 31.5406 24.3883C31.9212 24.2919 32.3154 24.319 32.7233 24.4697C33.1337 24.6179 33.5466 24.8911 33.9623 25.2894L34.6159 25.9155L32.669 27.9476C32.9545 28.2211 33.2187 28.3613 33.4616 28.3684C33.7045 28.3706 33.9435 28.2489 34.1786 28.0036C34.3657 27.8082 34.5146 27.6027 34.6253 27.387C34.7359 27.1712 34.8247 26.9081 34.8917 26.5976L35.9096 27.5729C35.8421 27.8588 35.7314 28.1297 35.5774 28.3857C35.4235 28.6416 35.229 28.8922 34.9939 29.1376C34.6004 29.5483 34.1963 29.8047 33.7815 29.9067C33.3666 30.0039 32.9377 29.9579 32.4946 29.7687C32.0515 29.5795 31.5946 29.2594 31.1238 28.8084C30.6481 28.3526 30.3049 27.9062 30.0945 27.4692C29.8839 27.0273 29.8098 26.6034 29.8723 26.1973C29.9346 25.7864 30.1385 25.4006 30.484 25.0401ZM31.4743 25.9313C31.3496 26.0615 31.3015 26.2244 31.3302 26.42C31.3614 26.6131 31.5159 26.8428 31.7938 27.1091L32.6359 26.2302C32.4556 26.0574 32.2936 25.9358 32.1498 25.8653C32.0036 25.7924 31.8742 25.7645 31.7618 25.7816C31.6517 25.7963 31.5559 25.8461 31.4743 25.9313Z" fill="black"/>
<path d="M33.4664 28.1184C33.3528 28.1144 33.2086 28.0623 33.0321 27.93L34.731 26.1568L34.6473 26.5449C34.5836 26.8403 34.501 27.0815 34.4028 27.2729C34.3044 27.4647 34.1704 27.6508 33.9981 27.8306C33.7923 28.0454 33.6159 28.1189 33.4664 28.1184ZM35.0646 26.4171L34.7606 26.1258L34.7964 26.0885L34.9693 25.908L34.7888 25.735L34.1353 25.1089C33.7023 24.6941 33.2607 24.3982 32.8091 24.2349C32.3594 24.0689 31.9137 24.0359 31.4792 24.146C31.0451 24.256 30.6534 24.5018 30.3035 24.8671C29.9297 25.2572 29.6967 25.6882 29.6251 26.1596C29.5538 26.624 29.6409 27.0985 29.8688 27.5767L29.8688 27.5767L29.8692 27.5777C30.0964 28.0494 30.4607 28.5193 30.9509 28.9889C31.4362 29.4539 31.9178 29.7943 32.3964 29.9987C32.8818 30.2059 33.3652 30.261 33.8385 30.1502L33.8385 30.1502L33.8413 30.1495C34.315 30.0329 34.7587 29.7444 35.1744 29.3106C35.4206 29.0536 35.6269 28.7884 35.7917 28.5145C35.9587 28.2368 36.0794 27.9418 36.1529 27.6303L36.1857 27.4912L36.0825 27.3923L35.0646 26.4171ZM32.0383 26.0891L32.0383 26.0891L32.0398 26.0898C32.1074 26.123 32.1859 26.1738 32.2753 26.2452L31.7936 26.748C31.6513 26.5839 31.5909 26.4625 31.5773 26.3818C31.5592 26.2551 31.5894 26.1725 31.6548 26.1042C31.6997 26.0573 31.7445 26.0361 31.7947 26.0295L31.7947 26.0295L31.7994 26.0288C31.8431 26.0221 31.9188 26.0295 32.0383 26.0891Z" stroke="#696969" stroke-opacity="0.2" stroke-width="0.5"/>
<path d="M30.5805 33.3994L25.3569 30.1973L26.6735 28.9855L29.0547 30.6893C29.2215 30.8091 29.3833 30.9312 29.5401 31.0555C29.6946 31.1772 29.8497 31.3149 30.0053 31.4686L30.0359 31.4405C29.9165 31.3005 29.7989 31.1472 29.6831 30.9804C29.5699 30.8113 29.4572 30.6299 29.3449 30.4363L27.8562 27.897L29.1728 26.6852L31.9431 32.1453L30.5805 33.3994Z" fill="black"/>
<path d="M30.4499 33.6126L30.6109 33.7113L30.7498 33.5834L32.1124 32.3293L32.2517 32.2011L32.166 32.0322L29.3957 26.5721L29.2463 26.2777L29.0035 26.5013L27.6868 27.7131L27.5385 27.8496L27.6405 28.0235L29.0005 30.3432L26.819 28.7822L26.6537 28.664L26.5042 28.8016L25.1876 30.0134L24.9441 30.2375L25.2262 30.4105L30.4499 33.6126Z" stroke="#696969" stroke-opacity="0.2" stroke-width="0.5"/>
<path d="M23.4933 31.6325C23.8684 31.2873 24.2886 31.1575 24.7538 31.243C25.219 31.3286 25.6841 31.6239 26.1491 32.1291L28.7453 34.9499L27.4746 36.1194L25.2518 33.7044C24.9888 33.4186 24.7674 33.2241 24.5876 33.121C24.4054 33.0153 24.2353 33.0352 24.0771 33.1808C23.8985 33.3452 23.8642 33.5512 23.9742 33.7987C24.0867 34.0439 24.3684 34.4114 24.8193 34.9013L26.6441 36.8839L25.3734 38.0534L21.3822 33.717L22.3773 32.8011L23.0121 33.2066L23.0848 33.1397C23.0243 32.9408 22.9989 32.7545 23.0086 32.5806C23.0159 32.4042 23.0608 32.238 23.1434 32.0819C23.2236 31.9232 23.3402 31.7734 23.4933 31.6325Z" fill="black"/>
<path d="M28.9146 35.1338L29.0986 34.9645L28.9293 34.7806L26.333 31.9598C25.8473 31.4321 25.3368 31.096 24.799 30.9971C24.2498 30.8961 23.7517 31.055 23.324 31.4486C23.1532 31.6058 23.0171 31.7783 22.9213 31.967C22.8223 32.155 22.7679 32.3563 22.7589 32.5685C22.7556 32.6279 22.7559 32.6879 22.7594 32.7485L22.5119 32.5904L22.3496 32.4868L22.208 32.6172L21.2129 33.5331L21.0289 33.7024L21.1982 33.8863L25.1895 38.2227L25.3588 38.4067L25.5427 38.2374L26.8134 37.0678L26.9974 36.8985L26.828 36.7146L25.0033 34.732C24.5526 34.2424 24.2967 33.9012 24.202 33.6958C24.1616 33.6044 24.157 33.5417 24.164 33.4996C24.1706 33.4602 24.1911 33.4156 24.2464 33.3647C24.2967 33.3185 24.3317 33.3074 24.3524 33.3049C24.3726 33.3026 24.4068 33.3051 24.4621 33.3372L24.4621 33.3372L24.4632 33.3378C24.6092 33.4216 24.8098 33.5933 25.0679 33.8737L27.2907 36.2887L27.46 36.4727L27.6439 36.3034L28.9146 35.1338Z" stroke="#696969" stroke-opacity="0.2" stroke-width="0.5"/>
<path d="M22.2797 36.1932C22.5357 36.4713 22.7563 36.7725 22.9417 37.0968C23.1272 37.4162 23.2509 37.7477 23.3128 38.0914C23.3746 38.4351 23.3519 38.7765 23.2445 39.1157C23.1374 39.4499 22.9167 39.7709 22.5825 40.0785C22.2763 40.3603 21.9547 40.5409 21.6176 40.6202C21.2782 40.6969 20.9396 40.6952 20.6018 40.6149C20.2616 40.5321 19.9338 40.3884 19.6183 40.1839C19.3005 39.9768 19.0101 39.7304 18.747 39.4447C18.3642 39.0287 18.0778 38.5972 17.8877 38.15C17.6953 37.7003 17.6376 37.2561 17.7147 36.8176C17.7943 36.3766 18.0447 35.9624 18.4657 35.5749C18.8178 35.2509 19.2063 35.0559 19.6311 34.9901C20.0536 34.9217 20.4903 34.9864 20.941 35.1842C21.3943 35.3797 21.8405 35.716 22.2797 36.1932ZM20.0433 38.2799C20.2805 38.5376 20.4967 38.7392 20.6919 38.8847C20.8897 39.0279 21.0654 39.1113 21.219 39.1348C21.3727 39.1583 21.5056 39.1185 21.6179 39.0151C21.7378 38.9047 21.7923 38.7745 21.7813 38.6243C21.768 38.4716 21.6945 38.2918 21.5607 38.0851C21.4269 37.8783 21.2379 37.6422 20.9937 37.3768C20.7494 37.1115 20.5322 36.9061 20.3419 36.7608C20.1515 36.6155 19.982 36.5311 19.8333 36.5078C19.6845 36.4844 19.5502 36.528 19.4303 36.6383C19.2619 36.7933 19.2274 37.0042 19.3267 37.2709C19.4287 37.5353 19.6675 37.8716 20.0433 38.2799Z" fill="black"/>
<path d="M23.4826 39.192L23.4829 39.1911C23.6022 38.814 23.628 38.4315 23.5588 38.0471C23.4916 37.6735 23.3574 37.3148 23.1583 36.972C22.9636 36.6315 22.732 36.3154 22.4636 36.0239C22.008 35.5289 21.5344 35.1681 21.0407 34.955C20.5532 34.7411 20.0684 34.6662 19.592 34.7431C19.1131 34.8175 18.6804 35.0375 18.2964 35.391C17.8465 35.8051 17.5604 36.2653 17.4687 36.7731L17.4687 36.7731L17.4685 36.7743C17.3822 37.2652 17.4483 37.7584 17.6578 38.2481C17.8607 38.7254 18.1641 39.1805 18.5631 39.614C18.8399 39.9147 19.1462 40.1747 19.4819 40.3934L19.4823 40.3937C19.8196 40.6123 20.1732 40.7679 20.5426 40.8578L20.5426 40.8578L20.544 40.8581C20.919 40.9472 21.2962 40.9492 21.6727 40.864L21.6728 40.864L21.6749 40.8635C22.0615 40.7726 22.4204 40.5675 22.7518 40.2625C23.1088 39.9339 23.359 39.5779 23.4826 39.192ZM21.2569 38.8877C21.1589 38.8727 21.0214 38.8144 20.8399 38.6832C20.6616 38.5501 20.4575 38.3607 20.2272 38.1106C19.8571 37.7084 19.6452 37.4009 19.5605 37.1823C19.5216 37.0773 19.5166 37.0035 19.5248 36.9531C19.5324 36.9069 19.5534 36.8648 19.5996 36.8223C19.6687 36.7587 19.728 36.7443 19.7945 36.7548C19.8848 36.7689 20.0153 36.826 20.1901 36.9595C20.3646 37.0927 20.571 37.2867 20.8097 37.5461C21.0484 37.8054 21.2274 38.03 21.3508 38.2208C21.4737 38.4108 21.5234 38.5497 21.5321 38.6442C21.5366 38.7107 21.5171 38.7681 21.4486 38.8312C21.3934 38.882 21.3371 38.9 21.2569 38.8877Z" stroke="#696969" stroke-opacity="0.2" stroke-width="0.5"/>
<path d="M18.0963 43.0127C17.6496 43.2924 17.2216 43.4356 16.8125 43.4422C16.4016 43.4458 16.0039 43.3041 15.6195 43.0169C15.2351 42.7298 14.8589 42.2923 14.4908 41.7045C14.1872 41.2195 13.9811 40.7369 13.8726 40.2565C13.7671 39.7743 13.7915 39.3233 13.9459 38.9034C14.0985 38.4805 14.4114 38.1209 14.8846 37.8246C15.1608 37.6516 15.4309 37.5275 15.6948 37.4523C15.9598 37.3723 16.2303 37.3339 16.5063 37.337L16.8472 38.7438C16.6347 38.7377 16.4403 38.7572 16.2638 38.8022C16.0856 38.8442 15.9201 38.9131 15.7672 39.0088C15.635 39.0916 15.5535 39.2163 15.5227 39.3829C15.492 39.5494 15.5122 39.7516 15.5833 39.9893C15.6556 40.2223 15.7837 40.4858 15.9678 40.7797C16.15 41.0707 16.3292 41.2981 16.5054 41.4619C16.6798 41.6227 16.8482 41.7218 17.0107 41.7592C17.1743 41.7918 17.3311 41.7611 17.481 41.6672C17.672 41.5476 17.8386 41.3922 17.9807 41.2009C18.1209 41.0067 18.2356 40.7815 18.3247 40.5252L19.1032 41.7684C19.0178 42.0306 18.8908 42.2656 18.7222 42.4734C18.5548 42.6765 18.3462 42.8562 18.0963 43.0127Z" fill="black"/>
<path d="M16.8147 43.6922L16.8165 43.6921C17.2826 43.6846 17.7546 43.5216 18.229 43.2245C18.4989 43.0555 18.7287 42.8586 18.9151 42.6325L18.9151 42.6325L18.9164 42.6309C19.1048 42.3986 19.2463 42.1363 19.3409 41.8459L19.3771 41.7348L19.3151 41.6358L18.5366 40.3925L18.2598 39.9505L18.0886 40.4431C18.0066 40.6788 17.9029 40.8813 17.779 41.0532C17.6546 41.2203 17.511 41.3535 17.3483 41.4554C17.2501 41.5169 17.1589 41.5329 17.0631 41.5147C16.9579 41.4896 16.8285 41.4197 16.6752 41.2784C16.5204 41.1344 16.3546 40.9264 16.1797 40.647C16.003 40.3649 15.8864 40.1219 15.8225 39.9165C15.7581 39.7009 15.7476 39.5417 15.7686 39.4282C15.7878 39.324 15.8325 39.2629 15.8999 39.2207C16.0292 39.1398 16.1692 39.0814 16.3213 39.0455L16.3213 39.0455L16.3256 39.0444C16.4761 39.006 16.647 38.9882 16.84 38.9937L17.1672 39.003L17.0901 38.6849L16.7493 37.2781L16.7035 37.0891L16.5091 37.087C16.2082 37.0836 15.913 37.1255 15.6244 37.2124C15.3347 37.2952 15.0438 37.4299 14.7519 37.6127C14.2433 37.9312 13.8869 38.331 13.711 38.8178C13.5387 39.2868 13.5138 39.7865 13.6284 40.31L13.6284 40.31L13.6288 40.3116C13.7444 40.8235 13.9627 41.3321 14.2789 41.8372C14.6567 42.4405 15.0524 42.9053 15.4699 43.2172C15.8905 43.5314 16.3403 43.6964 16.8147 43.6922Z" stroke="#696969" stroke-opacity="0.2" stroke-width="0.5"/>
</g>
<defs>
<filter id="filter0_d_3_2" x="0.96676" y="1.65272" width="67.0239" height="50.0458" filterUnits="userSpaceOnUse" color-interpolation-filters="sRGB">
<feFlood flood-opacity="0" result="BackgroundImageFix"/>
<feColorMatrix in="SourceAlpha" type="matrix" values="0 0 0 0 0 0 0 0 0 0 0 0 0 0 0 0 0 0 127 0" result="hardAlpha"/>
<feOffset dy="2"/>
<feGaussianBlur stdDeviation="1"/>
<feComposite in2="hardAlpha" operator="out"/>
<feColorMatrix type="matrix" values="0 0 0 0 0 0 0 0 0 0 0 0 0 0 0 0 0 0 0.25 0"/>
<feBlend mode="normal" in2="BackgroundImageFix" result="effect1_dropShadow_3_2"/>
<feBlend mode="normal" in="SourceGraphic" in2="effect1_dropShadow_3_2" result="shape"/>
</filter>
<filter id="filter1_d_3_2" x="9.30836" y="3.88266" width="52.2655" height="48.0596" filterUnits="userSpaceOnUse" color-interpolation-filters="sRGB">
<feFlood flood-opacity="0" result="BackgroundImageFix"/>
<feColorMatrix in="SourceAlpha" type="matrix" values="0 0 0 0 0 0 0 0 0 0 0 0 0 0 0 0 0 0 127 0" result="hardAlpha"/>
<feOffset dy="4"/>
<feGaussianBlur stdDeviation="2"/>
<feComposite in2="hardAlpha" operator="out"/>
<feColorMatrix type="matrix" values="0 0 0 0 0 0 0 0 0 0 0 0 0 0 0 0 0 0 0.25 0"/>
<feBlend mode="normal" in2="BackgroundImageFix" result="effect1_dropShadow_3_2"/>
<feBlend mode="normal" in="SourceGraphic" in2="effect1_dropShadow_3_2" result="shape"/>
</filter>
</defs>
</svg>
